<?xml version="1.0" encoding="UTF-8" standalone="no"?>
<svg
   xmlns:dc="http://purl.org/dc/elements/1.1/"
   xmlns:cc="http://creativecommons.org/ns#"
   xmlns:rdf="http://www.w3.org/1999/02/22-rdf-syntax-ns#"
   xmlns:svg="http://www.w3.org/2000/svg"
   xmlns="http://www.w3.org/2000/svg"
   xmlns:sodipodi="http://sodipodi.sourceforge.net/DTD/sodipodi-0.dtd"
   xmlns:inkscape="http://www.inkscape.org/namespaces/inkscape"
   width="51"
   height="39"
   viewBox="0 0 51 39"
   version="1.1"
   id="svg7"
   sodipodi:docname="cloud.svg"
   inkscape:version="0.92.2 2405546, 2018-03-11">
  <metadata
     id="metadata13">
    <rdf:RDF>
      <cc:Work
         rdf:about="">
        <dc:format>image/svg+xml</dc:format>
        <dc:type
           rdf:resource="http://purl.org/dc/dcmitype/StillImage" />
      </cc:Work>
    </rdf:RDF>
  </metadata>
  <defs
     id="defs11" />
  <sodipodi:namedview
     pagecolor="#ffffff"
     bordercolor="#666666"
     borderopacity="1"
     objecttolerance="10"
     gridtolerance="10"
     guidetolerance="10"
     inkscape:pageopacity="0"
     inkscape:pageshadow="2"
     inkscape:window-width="1920"
     inkscape:window-height="1053"
     id="namedview9"
     showgrid="false"
     inkscape:zoom="5.6614422"
     inkscape:cx="-4.4605016"
     inkscape:cy="-15.293743"
     inkscape:window-x="0"
     inkscape:window-y="0"
     inkscape:window-maximized="1"
     inkscape:current-layer="svg7" />
  <g
     id="Canvas"
     fill="none"
     style="stroke:#000000;stroke-opacity:1">
    <g
       id="cloud (1)"
       style="stroke:#000000;stroke-opacity:1">
      <g
         id="Vector"
         style="stroke:#000000;stroke-opacity:1">
        <path
           d="m 33.2299,11.625 h -2.462 C 30.0368,8.81756 28.5262,6.26973 26.4078,4.27102 24.2893,2.2723 21.6479,0.902858 18.7837,0.318285 15.9196,-0.266288 12.9474,-0.0425468 10.2051,0.964085 7.46274,1.97072 5.06014,3.71987 3.27028,6.0128 1.48043,8.30573 0.375093,11.0505 0.0798744,13.9352 -0.215344,16.8199 0.311393,19.7289 1.60023,22.3316 c 1.28884,2.6026 3.2881,4.7947 5.77061,6.327 C 9.85335,30.191 12.7196,31.0022 15.6438,31 h 17.5861 c 2.5912,0 5.0763,-1.0206 6.9085,-2.8374 C 41.9707,26.3458 43,23.8818 43,21.3125 43,18.7432 41.9707,16.2792 40.1384,14.4624 38.3062,12.6456 35.8211,11.625 33.2299,11.625 Z"
           transform="translate(4,4)"
           id="path2"
           style="stroke:#000000;stroke-width:8;stroke-linecap:round;stroke-linejoin:round;stroke-opacity:1"
           inkscape:connector-curvature="0" />
      </g>
    </g>
  </g>
</svg>
