<svg width="52" height="57" viewBox="0 0 52 57" version="1.1" xmlns="http://www.w3.org/2000/svg" xmlns:xlink="http://www.w3.org/1999/xlink">
<g id="Canvas" fill="none">
<g id="user">
<g id="Vector">
<path d="M 44 16.3333L 44 10.8888C 44 8.00094 42.8411 5.23133 40.7782 3.18927C 38.7153 1.14722 35.9174 0 33 0L 11 0C 8.08262 0 5.28472 1.14722 3.22182 3.18927C 1.15892 5.23133 0 8.00094 0 10.8888L 0 16.3333" stroke-width="8" stroke-linecap="round" stroke-linejoin="round" transform="translate(4 36.6665)" stroke="black"/>
</g>
<g id="Vector_2">
<path d="M 22 10.8888C 22 16.9026 17.0751 21.7777 11 21.7777C 4.92487 21.7777 0 16.9026 0 10.8888C 0 4.8751 4.92487 0 11 0C 17.0751 0 22 4.8751 22 10.8888Z" stroke-width="8" stroke-linecap="round" stroke-linejoin="round" transform="translate(15 4)" stroke="black"/>
</g>
</g>
</g>
</svg>

